<?xml version="1.0" encoding="utf-8"?>
<!-- Generator: Adobe Illustrator 28.1.0, SVG Export Plug-In . SVG Version: 6.00 Build 0)  -->
<svg version="1.1" id="Layer_1" xmlns="http://www.w3.org/2000/svg" xmlns:xlink="http://www.w3.org/1999/xlink" x="0px" y="0px"
	 viewBox="0 0 20 24" style="enable-background:new 0 0 20 24;" xml:space="preserve">
<style type="text/css">
	.st0{fill:#FFFFFF;}
</style>
<path class="st0" d="M14.5,5.8l0.3,0c0.8,0.1,3.1,0.3,4.5,2.4c-0.1,0.1-2.7,1.5-2.7,4.6c0,3.6,3.3,4.8,3.3,4.9
	c0,0.1-0.5,1.7-1.7,3.4c-1,1.5-2.1,2.9-3.8,3c-1.6,0-2.2-0.9-4-0.9c-1.9,0-2.5,0.9-4,1c-1.6,0.1-2.9-1.6-3.9-3
	C0.5,18-1.1,12.6,1,8.9c1.1-1.8,3-3,5.1-3c1.6,0,3.1,1,4,1c1,0,2.7-1.2,4.7-1.1L14.5,5.8z M14.9,0c0.2,1.4-0.4,2.8-1.3,3.8
	c-0.9,1-2.3,1.8-3.7,1.7c-0.2-1.4,0.5-2.8,1.3-3.7C12.1,0.8,13.6,0.1,14.9,0z"/>
</svg>
