<?xml version="1.0" encoding="utf-8"?>
<!-- Generator: Adobe Illustrator 28.1.0, SVG Export Plug-In . SVG Version: 6.00 Build 0)  -->
<svg version="1.1" id="Layer_1" xmlns="http://www.w3.org/2000/svg" xmlns:xlink="http://www.w3.org/1999/xlink" x="0px" y="0px"
	 viewBox="0 0 83 20" style="enable-background:new 0 0 83 20;" xml:space="preserve">
<style type="text/css">
	.st0{fill:#FFFFFF;}
</style>
<path class="st0" d="M34.8,19.7V6.2h-0.1l-5.4,13.5h-2.1L21.7,6.2h-0.1v13.5h-2.5V1.4h3.2L28.1,16h0.1l5.8-14.6h3.2v18.3L34.8,19.7
	L34.8,19.7z M51.4,19.7h-2.6v-2.3h-0.1C48,19.1,46.7,20,44.7,20c-2.9,0-4.6-1.9-4.6-5V6.4h2.7v8.1c0,2,1,3.1,2.8,3.1
	c2,0,3.1-1.4,3.1-3.5V6.4h2.7L51.4,19.7L51.4,19.7z M58.8,6.1c3.1,0,5,1.7,5.1,4.2h-2.5c-0.2-1.3-1.1-2.1-2.6-2.1
	c-1.5,0-2.4,0.7-2.4,1.8c0,0.8,0.6,1.4,2,1.7l2.1,0.5c2.7,0.6,3.7,1.7,3.7,3.6c0,2.4-2.2,4.1-5.3,4.1c-3.3,0-5.3-1.6-5.5-4.2h2.7
	c0.2,1.4,1.2,2.1,2.8,2.1c1.6,0,2.6-0.7,2.6-1.8c0-0.9-0.5-1.4-1.9-1.7l-2.1-0.5c-2.5-0.6-3.7-1.8-3.7-3.8
	C53.7,7.8,55.8,6.1,58.8,6.1z M66.1,2.8c0-0.9,0.7-1.6,1.6-1.6c0.9,0,1.6,0.7,1.6,1.6c0,0.9-0.7,1.6-1.6,1.6
	C66.8,4.4,66.1,3.7,66.1,2.8L66.1,2.8z M66.3,6.4H69v13.4h-2.7V6.4z M80.4,11c-0.3-1.4-1.3-2.6-3.1-2.6c-2.1,0-3.5,1.8-3.5,4.6
	c0,2.9,1.4,4.6,3.5,4.6c1.7,0,2.7-0.9,3.1-2.5H83c-0.3,2.8-2.5,4.8-5.7,4.8c-3.8,0-6.2-2.6-6.2-6.9c0-4.2,2.4-6.9,6.2-6.9
	c3.4,0,5.4,2.2,5.7,4.8L80.4,11L80.4,11z M10.8,3.2C10.1,4,9,4.7,7.9,4.6c-0.1-1.1,0.4-2.3,1-3.1c0.7-0.9,1.9-1.5,2.9-1.5
	C12,1.2,11.5,2.3,10.8,3.2L10.8,3.2z M11.8,4.8c0.6,0,2.4,0.2,3.6,2c-0.1,0.1-2.1,1.3-2.1,3.8c0,3,2.6,4,2.6,4
	c0,0.1-0.4,1.4-1.3,2.8c-0.8,1.2-1.7,2.4-3,2.4c-1.3,0-1.7-0.8-3.2-0.8c-1.5,0-2,0.8-3.2,0.8c-1.3,0-2.3-1.3-3.1-2.5
	c-1.7-2.5-3-7-1.2-10c0.8-1.5,2.4-2.5,4-2.5c1.3,0,2.5,0.9,3.2,0.9C8.8,5.7,10.2,4.7,11.8,4.8L11.8,4.8z"/>
</svg>
